inDegrees=yes
name=ik_S53_A11_T02
DataType=double
version=3
OpenSimVersion=4.3-2021-08-27-4bc7ad9
endheader
time	pelvis_tilt	pelvis_list	pelvis_rotation	pelvis_tx	pelvis_ty	pelvis_tz	hip_flexion_r	hip_adduction_r	hip_rotation_r	knee_angle_r	knee_angle_r_beta	ankle_angle_r	subtalar_angle_r	mtp_angle_r	hip_flexion_l	hip_adduction_l	hip_rotation_l	knee_angle_l	knee_angle_l_beta	ankle_angle_l	subtalar_angle_l	mtp_angle_l	lumbar_extension	lumbar_bending	lumbar_rotation	arm_flex_r	arm_add_r	arm_rot_r	elbow_flex_r	pro_sup_r	wrist_flex_r	wrist_dev_r	arm_flex_l	arm_add_l	arm_rot_l	elbow_flex_l	pro_sup_l	wrist_flex_l	wrist_dev_l
3.449999999999993	-1.446156404422664	-1.831894959958112	27.3041596098718	0	0.9399999999999999	0	23.71255316959589	-8.295187330946822	-7.191253627381667	27.8696804011008	0.4864176844777428	0	0	0	23.71255316959589	-8.295187330946822	-7.191253627381667	27.8696804011008	0.4864176844777428	0	0	0	-1.84941284245201	-0.320131861686304	9.996372180104474	25.90611264503329	-11.28103489973927	-17.5458546953068	9.937946584411955	114.3703285451104	0	0	14.52465099211543	-15.20693193794601	-7.797878175497011	14.07823037164979	123.5863439282019	0	0
3.466666666666659	-1.505830268499031	-1.998013414824437	27.19647495982466	0	0.9399999999999999	0	23.89553545790353	-8.329069801842522	-7.232511281459599	28.08749483219859	0.4902192634587576	0	0	0	23.89553545790353	-8.329069801842522	-7.232511281459599	28.08749483219859	0.4902192634587576	0	0	0	-1.974942213223011	-0.4532567206952058	10.10049086528999	28.75256793095241	-11.48904355841187	-18.1607369007103	10.66123728227618	113.883570301949	0	0	14.90340834765804	-15.35860676361024	-7.633804157448418	14.00012508513131	123.6316574198544	0	0
3.483333333333326	-1.552489021520849	-2.157480084678699	27.13015681309574	0	0.9399999999999999	0	24.07980528180118	-8.362809506052699	-7.273821468068604	28.30671185557815	0.4940453222931523	0	0	0	24.07980528180118	-8.362809506052699	-7.273821468068604	28.30671185557815	0.4940453222931523	0	0	0	-2.085996983509363	-0.5860008321581535	10.18531256840558	31.60925412373168	-11.62550120798535	-18.79905316938081	11.40188136727159	113.5324686844837	0	0	15.26044743223038	-15.52901475380893	-7.47504871469152	13.92007127951603	123.5682562214891	0	0
3.499999999999992	-1.495569688141926	-2.205127141640974	27.04977074887069	0	0.9399999999999999	0	24.25168786960938	-8.394033709634686	-7.312200224073479	28.51081386281905	0.4976075743294353	0	0	0	24.25168786960938	-8.394033709634686	-7.312200224073479	28.51081386281905	0.4976075743294353	0	0	0	-2.05448440818909	-0.6647872930398229	10.24568922743815	34.3523951493772	-11.69932612394617	-19.34571554897731	12.02104211626096	113.1997511226167	0	0	15.30361272266825	-15.64740055499431	-7.372835456474169	13.8090284016092	123.6326676224012	0	0
3.516666666666659	-1.413873596490405	-2.192743751433287	26.85002846019942	0	0.9399999999999999	0	24.2625912443015	-8.396750230105807	-7.315125556665384	28.52116182400977	0.4977881803230819	0	0	0	24.2625912443015	-8.396750230105807	-7.315125556665384	28.52116182400977	0.4977881803230819	0	0	0	-1.970690173815549	-0.7003655928038032	10.3814114553311	36.99277241893299	-11.95225406927807	-19.9184151241052	9.240279021911824	114.3909178479006	0	0	15.12256234046077	-15.7239859473685	-7.415750420491766	13.82378966609885	123.7248286428246	0	0
3.533333333333326	-1.318366038683481	-2.174755616865951	26.78673071308248	0	0.9399999999999999	0	24.4814662847598	-8.435630520254982	-7.363437354383335	28.78202356662678	0.5023410766242389	0	0	0	24.4814662847598	-8.435630520254982	-7.363437354383335	28.78202356662678	0.5023410766242389	0	0	0	-1.877013527240358	-0.735300945968101	10.36889551777393	39.73177750204041	-11.56899003369592	-19.98536169323829	13.27450351230448	112.6561264792249	0	0	14.95978963174834	-15.81280359963968	-7.452470000718514	13.74696226752986	123.7707955006881	0	0
3.549999999999992	-1.295520391269518	-2.181217373171668	26.74899935128844	0	0.9399999999999999	0	24.48369625698918	-8.436175934075507	-7.364029890182525	28.78414777784724	0.5023781511040437	0	0	0	24.48369625698918	-8.436175934075507	-7.364029890182525	28.78414777784724	0.5023781511040437	0	0	0	-1.859587011563559	-0.7513224444307133	10.36596176395258	39.71360840290508	-11.50963436755817	-19.9603642511509	13.26985881508634	112.6502372612397	0	0	14.95339083845607	-15.78461228218856	-7.391603913514169	13.68678413875792	123.8647770852002	0	0
